<?xml version="1.0" encoding="UTF-8" standalone="no"?>
<!DOCTYPE svg PUBLIC "-//W3C//DTD SVG 1.1//EN"
 "http://www.w3.org/Graphics/SVG/1.1/DTD/svg11.dtd">
<!-- Generated by graphviz version 14.1.2 (20260124.0452)
 -->
<!-- Title: Brute_Force_Password_Guessing Pages: 1 -->
<svg width="4294pt" height="98pt"
 viewBox="0.00 0.00 4294.00 98.00" xmlns="http://www.w3.org/2000/svg" xmlns:xlink="http://www.w3.org/1999/xlink">
<g id="graph0" class="graph" transform="scale(1 1) rotate(0) translate(4 94)">
<title>Brute_Force_Password_Guessing</title>
<polygon fill="white" stroke="none" points="-4,4 -4,-94 4289.91,-94 4289.91,4 -4,4"/>
<!-- 2393457257856 -->
<g id="node1" class="node">
<title>2393457257856</title>
<polygon fill="white" stroke="black" points="805.59,-63 470.09,-63 470.09,-27 805.59,-27 805.59,-63"/>
<text xml:space="preserve" text-anchor="middle" x="637.84" y="-40.73" font-family="Times New Roman,serif" font-size="12.00">authentication_process_receives_IncorrectCredentials_to_accountA</text>
</g>
<!-- 2393457256080 -->
<g id="node17" class="node">
<title>2393457256080</title>
<ellipse fill="white" stroke="black" cx="947.17" cy="-45" rx="105.58" ry="18"/>
<text xml:space="preserve" text-anchor="middle" x="947.17" y="-40.73" font-family="Times New Roman,serif" font-size="12.00">IncorrectCredentials_rejected_1</text>
</g>
<!-- 2393457257856&#45;&gt;2393457256080 -->
<g id="edge11" class="edge">
<title>2393457257856&#45;&gt;2393457256080</title>
<path fill="none" stroke="black" d="M806,-45C814.04,-45 822.03,-45 829.88,-45"/>
<polygon fill="black" stroke="black" points="829.76,-48.5 839.76,-45 829.76,-41.5 829.76,-48.5"/>
</g>
<!-- 2393457256992 -->
<g id="node2" class="node">
<title>2393457256992</title>
<polygon fill="white" stroke="black" points="3280.23,-63 2944.73,-63 2944.73,-27 3280.23,-27 3280.23,-63"/>
<text xml:space="preserve" text-anchor="middle" x="3112.48" y="-40.73" font-family="Times New Roman,serif" font-size="12.00">authentication_process_receives_IncorrectCredentials_to_accountA</text>
</g>
<!-- 2393457257184 -->
<g id="node12" class="node">
<title>2393457257184</title>
<ellipse fill="white" stroke="black" cx="3414.18" cy="-45" rx="97.95" ry="18"/>
<text xml:space="preserve" text-anchor="middle" x="3414.18" y="-40.73" font-family="Times New Roman,serif" font-size="12.00">IncorrectCredentials_rejected</text>
</g>
<!-- 2393457256992&#45;&gt;2393457257184 -->
<g id="edge8" class="edge">
<title>2393457256992&#45;&gt;2393457257184</title>
<path fill="none" stroke="black" d="M3280.42,-45C3288.55,-45 3296.6,-45 3304.5,-45"/>
<polygon fill="black" stroke="black" points="3304.42,-48.5 3314.42,-45 3304.42,-41.5 3304.42,-48.5"/>
</g>
<!-- 2393457257712 -->
<g id="node3" class="node">
<title>2393457257712</title>
<polygon fill="white" stroke="black" points="2042.91,-63 1707.41,-63 1707.41,-27 2042.91,-27 2042.91,-63"/>
<text xml:space="preserve" text-anchor="middle" x="1875.16" y="-40.73" font-family="Times New Roman,serif" font-size="12.00">authentication_process_receives_IncorrectCredentials_to_accountA</text>
</g>
<!-- 2393457256320 -->
<g id="node11" class="node">
<title>2393457256320</title>
<ellipse fill="white" stroke="black" cx="2184.49" cy="-45" rx="105.58" ry="18"/>
<text xml:space="preserve" text-anchor="middle" x="2184.49" y="-40.73" font-family="Times New Roman,serif" font-size="12.00">IncorrectCredentials_rejected_3</text>
</g>
<!-- 2393457257712&#45;&gt;2393457256320 -->
<g id="edge5" class="edge">
<title>2393457257712&#45;&gt;2393457256320</title>
<path fill="none" stroke="black" d="M2043.32,-45C2051.36,-45 2059.35,-45 2067.2,-45"/>
<polygon fill="black" stroke="black" points="2067.08,-48.5 2077.08,-45 2067.08,-41.5 2067.08,-48.5"/>
</g>
<!-- 2393457258096 -->
<g id="node4" class="node">
<title>2393457258096</title>
<polygon fill="white" stroke="black" points="1424.25,-63 1088.75,-63 1088.75,-27 1424.25,-27 1424.25,-63"/>
<text xml:space="preserve" text-anchor="middle" x="1256.5" y="-40.73" font-family="Times New Roman,serif" font-size="12.00">authentication_process_receives_IncorrectCredentials_to_accountA</text>
</g>
<!-- 2393457258528 -->
<g id="node10" class="node">
<title>2393457258528</title>
<ellipse fill="white" stroke="black" cx="1565.83" cy="-45" rx="105.58" ry="18"/>
<text xml:space="preserve" text-anchor="middle" x="1565.83" y="-40.73" font-family="Times New Roman,serif" font-size="12.00">IncorrectCredentials_rejected_2</text>
</g>
<!-- 2393457258096&#45;&gt;2393457258528 -->
<g id="edge2" class="edge">
<title>2393457258096&#45;&gt;2393457258528</title>
<path fill="none" stroke="black" d="M1424.66,-45C1432.7,-45 1440.69,-45 1448.54,-45"/>
<polygon fill="black" stroke="black" points="1448.42,-48.5 1458.42,-45 1448.42,-41.5 1448.42,-48.5"/>
</g>
<!-- 2393457258384 -->
<g id="node5" class="node">
<title>2393457258384</title>
<polygon fill="white" stroke="black" points="2661.57,-63 2326.07,-63 2326.07,-27 2661.57,-27 2661.57,-63"/>
<text xml:space="preserve" text-anchor="middle" x="2493.82" y="-40.73" font-family="Times New Roman,serif" font-size="12.00">authentication_process_receives_IncorrectCredentials_to_accountA</text>
</g>
<!-- 2393457258192 -->
<g id="node18" class="node">
<title>2393457258192</title>
<ellipse fill="white" stroke="black" cx="2803.15" cy="-45" rx="105.58" ry="18"/>
<text xml:space="preserve" text-anchor="middle" x="2803.15" y="-40.73" font-family="Times New Roman,serif" font-size="12.00">IncorrectCredentials_rejected_4</text>
</g>
<!-- 2393457258384&#45;&gt;2393457258192 -->
<g id="edge6" class="edge">
<title>2393457258384&#45;&gt;2393457258192</title>
<path fill="none" stroke="black" d="M2661.98,-45C2670.02,-45 2678.01,-45 2685.86,-45"/>
<polygon fill="black" stroke="black" points="2685.74,-48.5 2695.74,-45 2685.74,-41.5 2685.74,-48.5"/>
</g>
<!-- 2393457258576 -->
<g id="node6" class="node">
<title>2393457258576</title>
<polygon fill="white" stroke="black" points="3876.88,-63 3548.13,-63 3548.13,-27 3876.88,-27 3876.88,-63"/>
<text xml:space="preserve" text-anchor="middle" x="3712.5" y="-40.73" font-family="Times New Roman,serif" font-size="12.00">authentication_process_receives_CorrectCredentials_to_accountA</text>
</g>
<!-- 2393457258336 -->
<g id="node13" class="node">
<title>2393457258336</title>
<ellipse fill="white" stroke="black" cx="4009.39" cy="-72" rx="96.52" ry="18"/>
<text xml:space="preserve" text-anchor="middle" x="4009.39" y="-67.72" font-family="Times New Roman,serif" font-size="12.00">CorrectCredentials_accepted</text>
</g>
<!-- 2393457258576&#45;&gt;2393457258336 -->
<g id="edge10" class="edge">
<title>2393457258576&#45;&gt;2393457258336</title>
<path fill="none" stroke="black" d="M3877.33,-60C3888.74,-61.05 3900.03,-62.08 3910.9,-63.07"/>
<polygon fill="black" stroke="black" points="3910.28,-66.53 3920.56,-63.96 3910.92,-59.56 3910.28,-66.53"/>
</g>
<!-- 2393457258816 -->
<g id="node14" class="node">
<title>2393457258816</title>
<ellipse fill="white" stroke="black" cx="4009.39" cy="-18" rx="56.45" ry="18"/>
<text xml:space="preserve" text-anchor="middle" x="4009.39" y="-13.72" font-family="Times New Roman,serif" font-size="12.00">user_logged_in</text>
</g>
<!-- 2393457258576&#45;&gt;2393457258816 -->
<g id="edge13" class="edge">
<title>2393457258576&#45;&gt;2393457258816</title>
<path fill="none" stroke="black" d="M3877.33,-30C3900.71,-27.86 3923.54,-25.77 3943.42,-23.95"/>
<polygon fill="black" stroke="black" points="3943.62,-27.45 3953.26,-23.05 3942.98,-20.47 3943.62,-27.45"/>
</g>
<!-- 2393457258672 -->
<g id="node7" class="node">
<title>2393457258672</title>
<polygon fill="black" stroke="black" points="144,-63 90,-63 90,-27 144,-27 144,-63"/>
</g>
<!-- 2393457257952 -->
<g id="node9" class="node">
<title>2393457257952</title>
<ellipse fill="white" stroke="black" cx="307.05" cy="-45" rx="127.05" ry="18"/>
<text xml:space="preserve" text-anchor="middle" x="307.05" y="-40.73" font-family="Times New Roman,serif" font-size="12.00">authentication_process_awaiting_input</text>
</g>
<!-- 2393457258672&#45;&gt;2393457257952 -->
<g id="edge15" class="edge">
<title>2393457258672&#45;&gt;2393457257952</title>
<path fill="none" stroke="black" d="M144.15,-45C151.32,-45 159.63,-45 168.61,-45"/>
<polygon fill="black" stroke="black" points="168.35,-48.5 178.35,-45 168.35,-41.5 168.35,-48.5"/>
</g>
<!-- 2393457259152 -->
<g id="node8" class="node">
<title>2393457259152</title>
<polygon fill="black" stroke="black" points="4195.91,-63 4141.91,-63 4141.91,-27 4195.91,-27 4195.91,-63"/>
</g>
<!-- 2393456790752 -->
<g id="node15" class="node">
<title>2393456790752</title>
<ellipse fill="white" stroke="black" cx="4258.91" cy="-45" rx="27" ry="18"/>
<text xml:space="preserve" text-anchor="middle" x="4258.91" y="-40.73" font-family="Times New Roman,serif" font-size="12.00">end</text>
</g>
<!-- 2393457259152&#45;&gt;2393456790752 -->
<g id="edge16" class="edge">
<title>2393457259152&#45;&gt;2393456790752</title>
<path fill="none" stroke="black" d="M4196.31,-45C4203.8,-45 4212.09,-45 4220.11,-45"/>
<polygon fill="black" stroke="black" points="4220.01,-48.5 4230.01,-45 4220.01,-41.5 4220.01,-48.5"/>
</g>
<!-- 2393457257952&#45;&gt;2393457257856 -->
<g id="edge1" class="edge">
<title>2393457257952&#45;&gt;2393457257856</title>
<path fill="none" stroke="black" d="M434.23,-45C442.17,-45 450.23,-45 458.34,-45"/>
<polygon fill="black" stroke="black" points="458.32,-48.5 468.32,-45 458.32,-41.5 458.32,-48.5"/>
</g>
<!-- 2393457258528&#45;&gt;2393457257712 -->
<g id="edge3" class="edge">
<title>2393457258528&#45;&gt;2393457257712</title>
<path fill="none" stroke="black" d="M1671.74,-45C1679.54,-45 1687.53,-45 1695.61,-45"/>
<polygon fill="black" stroke="black" points="1695.57,-48.5 1705.57,-45 1695.57,-41.5 1695.57,-48.5"/>
</g>
<!-- 2393457256320&#45;&gt;2393457258384 -->
<g id="edge12" class="edge">
<title>2393457256320&#45;&gt;2393457258384</title>
<path fill="none" stroke="black" d="M2290.4,-45C2298.2,-45 2306.19,-45 2314.27,-45"/>
<polygon fill="black" stroke="black" points="2314.23,-48.5 2324.23,-45 2314.23,-41.5 2314.23,-48.5"/>
</g>
<!-- 2393457257184&#45;&gt;2393457258576 -->
<g id="edge9" class="edge">
<title>2393457257184&#45;&gt;2393457258576</title>
<path fill="none" stroke="black" d="M3512.62,-45C3520.35,-45 3528.3,-45 3536.36,-45"/>
<polygon fill="black" stroke="black" points="3536.31,-48.5 3546.31,-45 3536.31,-41.5 3536.31,-48.5"/>
</g>
<!-- 2393457258336&#45;&gt;2393457259152 -->
<g id="edge17" class="edge">
<title>2393457258336&#45;&gt;2393457259152</title>
<path fill="none" stroke="black" d="M4081.78,-59.76C4098.61,-56.88 4115.89,-53.92 4130.51,-51.41"/>
<polygon fill="black" stroke="black" points="4130.85,-54.9 4140.12,-49.76 4129.67,-48 4130.85,-54.9"/>
</g>
<!-- 2393457258816&#45;&gt;2393457259152 -->
<g id="edge18" class="edge">
<title>2393457258816&#45;&gt;2393457259152</title>
<path fill="none" stroke="black" d="M4059.8,-26.47C4082.64,-30.38 4109.32,-34.96 4130.46,-38.58"/>
<polygon fill="black" stroke="black" points="4129.64,-41.99 4140.08,-40.23 4130.82,-35.09 4129.64,-41.99"/>
</g>
<!-- 2393455505248 -->
<g id="node16" class="node">
<title>2393455505248</title>
<ellipse fill="white" stroke="black" cx="27" cy="-45" rx="27" ry="18"/>
<text xml:space="preserve" text-anchor="middle" x="27" y="-40.73" font-family="Times New Roman,serif" font-size="12.00">start</text>
</g>
<!-- 2393455505248&#45;&gt;2393457258672 -->
<g id="edge14" class="edge">
<title>2393455505248&#45;&gt;2393457258672</title>
<path fill="none" stroke="black" d="M54.4,-45C61.89,-45 70.18,-45 78.2,-45"/>
<polygon fill="black" stroke="black" points="78.1,-48.5 88.1,-45 78.1,-41.5 78.1,-48.5"/>
</g>
<!-- 2393457256080&#45;&gt;2393457258096 -->
<g id="edge4" class="edge">
<title>2393457256080&#45;&gt;2393457258096</title>
<path fill="none" stroke="black" d="M1053.08,-45C1060.88,-45 1068.87,-45 1076.95,-45"/>
<polygon fill="black" stroke="black" points="1076.91,-48.5 1086.91,-45 1076.91,-41.5 1076.91,-48.5"/>
</g>
<!-- 2393457258192&#45;&gt;2393457256992 -->
<g id="edge7" class="edge">
<title>2393457258192&#45;&gt;2393457256992</title>
<path fill="none" stroke="black" d="M2909.06,-45C2916.86,-45 2924.84,-45 2932.93,-45"/>
<polygon fill="black" stroke="black" points="2932.89,-48.5 2942.89,-45 2932.89,-41.5 2932.89,-48.5"/>
</g>
</g>
</svg>
