<?xml version="1.0" encoding="UTF-8" standalone="no"?>
<!DOCTYPE svg PUBLIC "-//W3C//DTD SVG 1.1//EN"
 "http://www.w3.org/Graphics/SVG/1.1/DTD/svg11.dtd">
<!-- Generated by graphviz version 14.1.2 (20260124.0452)
 -->
<!-- Title: Scheduled_Task_Job_At Pages: 1 -->
<svg width="1527pt" height="206pt"
 viewBox="0.00 0.00 1527.00 206.00" xmlns="http://www.w3.org/2000/svg" xmlns:xlink="http://www.w3.org/1999/xlink">
<g id="graph0" class="graph" transform="scale(1 1) rotate(0) translate(4 202)">
<title>Scheduled_Task_Job_At</title>
<polygon fill="white" stroke="none" points="-4,4 -4,-202 1523.23,-202 1523.23,4 -4,4"/>
<!-- 1792112449376 -->
<g id="node1" class="node">
<title>1792112449376</title>
<polygon fill="white" stroke="black" points="663.89,-144 504.64,-144 504.64,-108 663.89,-108 663.89,-144"/>
<text xml:space="preserve" text-anchor="middle" x="584.26" y="-121.72" font-family="Times New Roman,serif" font-size="12.00">at.exe_creates_AnomalousJob</text>
</g>
<!-- 1792110678464 -->
<g id="node12" class="node">
<title>1792110678464</title>
<ellipse fill="white" stroke="black" cx="834.29" cy="-95" rx="80.77" ry="18"/>
<text xml:space="preserve" text-anchor="middle" x="834.29" y="-90.72" font-family="Times New Roman,serif" font-size="12.00">AnomalousJob_created</text>
</g>
<!-- 1792112449376&#45;&gt;1792110678464 -->
<g id="edge8" class="edge">
<title>1792112449376&#45;&gt;1792110678464</title>
<path fill="none" stroke="black" d="M664.08,-116.15C692.13,-112.64 723.75,-108.69 752,-105.16"/>
<polygon fill="black" stroke="black" points="752.07,-108.68 761.56,-103.96 751.2,-101.73 752.07,-108.68"/>
</g>
<!-- 1792113289760 -->
<g id="node2" class="node">
<title>1792113289760</title>
<polygon fill="white" stroke="black" points="1149.31,-140 951.06,-140 951.06,-104 1149.31,-104 1149.31,-140"/>
<text xml:space="preserve" text-anchor="middle" x="1050.19" y="-117.72" font-family="Times New Roman,serif" font-size="12.00">taskeng_exe_executes_AnomalousJob</text>
</g>
<!-- 1792113289904 -->
<g id="node16" class="node">
<title>1792113289904</title>
<ellipse fill="white" stroke="black" cx="1262.27" cy="-95" rx="76.96" ry="18"/>
<text xml:space="preserve" text-anchor="middle" x="1262.27" y="-90.72" font-family="Times New Roman,serif" font-size="12.00">AnomalousJob_active</text>
</g>
<!-- 1792113289760&#45;&gt;1792113289904 -->
<g id="edge9" class="edge">
<title>1792113289760&#45;&gt;1792113289904</title>
<path fill="none" stroke="black" d="M1149.77,-109.33C1160.73,-107.92 1171.78,-106.5 1182.45,-105.13"/>
<polygon fill="black" stroke="black" points="1182.88,-108.6 1192.36,-103.86 1181.99,-101.66 1182.88,-108.6"/>
</g>
<!-- 1792111959104 -->
<g id="node3" class="node">
<title>1792111959104</title>
<polygon fill="white" stroke="black" points="717.51,-90 451.01,-90 451.01,-54 717.51,-54 717.51,-90"/>
<text xml:space="preserve" text-anchor="middle" x="584.26" y="-67.72" font-family="Times New Roman,serif" font-size="12.00">WMI_Win32_ScheduledJob_creates_AnomalousJob</text>
</g>
<!-- 1792111959104&#45;&gt;1792110678464 -->
<g id="edge5" class="edge">
<title>1792111959104&#45;&gt;1792110678464</title>
<path fill="none" stroke="black" d="M717.99,-84.31C728.09,-85.24 738.11,-86.17 747.78,-87.07"/>
<polygon fill="black" stroke="black" points="747.18,-90.53 757.46,-87.97 747.82,-83.56 747.18,-90.53"/>
</g>
<!-- 1792113290240 -->
<g id="node4" class="node">
<title>1792113290240</title>
<polygon fill="black" stroke="black" points="144,-90 90,-90 90,-54 144,-54 144,-90"/>
</g>
<!-- 1792113289856 -->
<g id="node11" class="node">
<title>1792113289856</title>
<ellipse fill="white" stroke="black" cx="297.51" cy="-72" rx="117.51" ry="18"/>
<text xml:space="preserve" text-anchor="middle" x="297.51" y="-67.72" font-family="Times New Roman,serif" font-size="12.00">WMI_Win32_ScheduledJob_active</text>
</g>
<!-- 1792113290240&#45;&gt;1792113289856 -->
<g id="edge4" class="edge">
<title>1792113290240&#45;&gt;1792113289856</title>
<path fill="none" stroke="black" d="M144.34,-72C151.43,-72 159.6,-72 168.4,-72"/>
<polygon fill="black" stroke="black" points="168.32,-75.5 178.32,-72 168.32,-68.5 168.32,-75.5"/>
</g>
<!-- 1792113290816 -->
<g id="node5" class="node">
<title>1792113290816</title>
<polygon fill="black" stroke="black" points="1429.23,-113 1375.23,-113 1375.23,-77 1429.23,-77 1429.23,-113"/>
</g>
<!-- 1792111190304 -->
<g id="node13" class="node">
<title>1792111190304</title>
<ellipse fill="white" stroke="black" cx="1492.23" cy="-95" rx="27" ry="18"/>
<text xml:space="preserve" text-anchor="middle" x="1492.23" y="-90.72" font-family="Times New Roman,serif" font-size="12.00">end</text>
</g>
<!-- 1792113290816&#45;&gt;1792111190304 -->
<g id="edge17" class="edge">
<title>1792113290816&#45;&gt;1792111190304</title>
<path fill="none" stroke="black" d="M1429.63,-95C1437.11,-95 1445.41,-95 1453.43,-95"/>
<polygon fill="black" stroke="black" points="1453.33,-98.5 1463.33,-95 1453.33,-91.5 1453.33,-98.5"/>
</g>
<!-- 1792113289616 -->
<g id="node6" class="node">
<title>1792113289616</title>
<polygon fill="black" stroke="black" points="144,-198 90,-198 90,-162 144,-162 144,-198"/>
</g>
<!-- 1792113287888 -->
<g id="node17" class="node">
<title>1792113287888</title>
<ellipse fill="white" stroke="black" cx="834.29" cy="-160" rx="68.85" ry="18"/>
<text xml:space="preserve" text-anchor="middle" x="834.29" y="-155.72" font-family="Times New Roman,serif" font-size="12.00">taskeng_exe_active</text>
</g>
<!-- 1792113289616&#45;&gt;1792113287888 -->
<g id="edge13" class="edge">
<title>1792113289616&#45;&gt;1792113287888</title>
<path fill="none" stroke="black" d="M144.31,-179.26C243.25,-176.5 595.52,-166.65 754.47,-162.2"/>
<polygon fill="black" stroke="black" points="754.16,-165.71 764.06,-161.94 753.97,-158.72 754.16,-165.71"/>
</g>
<!-- 1792111187952 -->
<g id="node7" class="node">
<title>1792111187952</title>
<polygon fill="white" stroke="black" points="1148.94,-86 951.44,-86 951.44,-50 1148.94,-50 1148.94,-86"/>
<text xml:space="preserve" text-anchor="middle" x="1050.19" y="-63.73" font-family="Times New Roman,serif" font-size="12.00">svchost_exe_executes_AnomalousJob</text>
</g>
<!-- 1792111187952&#45;&gt;1792113289904 -->
<g id="edge15" class="edge">
<title>1792111187952&#45;&gt;1792113289904</title>
<path fill="none" stroke="black" d="M1149.15,-80.59C1160.43,-82.04 1171.81,-83.5 1182.78,-84.91"/>
<polygon fill="black" stroke="black" points="1182.17,-88.36 1192.54,-86.17 1183.07,-81.42 1182.17,-88.36"/>
</g>
<!-- 1792113284816 -->
<g id="node8" class="node">
<title>1792113284816</title>
<polygon fill="black" stroke="black" points="144,-36 90,-36 90,0 144,0 144,-36"/>
</g>
<!-- 1792113287504 -->
<g id="node15" class="node">
<title>1792113287504</title>
<ellipse fill="white" stroke="black" cx="584.26" cy="-18" rx="68.37" ry="18"/>
<text xml:space="preserve" text-anchor="middle" x="584.26" y="-13.72" font-family="Times New Roman,serif" font-size="12.00">svchost_exe_active</text>
</g>
<!-- 1792113284816&#45;&gt;1792113287504 -->
<g id="edge6" class="edge">
<title>1792113284816&#45;&gt;1792113287504</title>
<path fill="none" stroke="black" d="M144.35,-18C212.6,-18 397.27,-18 504.07,-18"/>
<polygon fill="black" stroke="black" points="503.91,-21.5 513.91,-18 503.91,-14.5 503.91,-21.5"/>
</g>
<!-- 1792113290480 -->
<g id="node9" class="node">
<title>1792113290480</title>
<polygon fill="black" stroke="black" points="144,-144 90,-144 90,-108 144,-108 144,-144"/>
</g>
<!-- 1792112959200 -->
<g id="node10" class="node">
<title>1792112959200</title>
<ellipse fill="white" stroke="black" cx="297.51" cy="-126" rx="49.29" ry="18"/>
<text xml:space="preserve" text-anchor="middle" x="297.51" y="-121.72" font-family="Times New Roman,serif" font-size="12.00">at.exe_active</text>
</g>
<!-- 1792113290480&#45;&gt;1792112959200 -->
<g id="edge3" class="edge">
<title>1792113290480&#45;&gt;1792112959200</title>
<path fill="none" stroke="black" d="M144.34,-126C168.52,-126 205.25,-126 236.56,-126"/>
<polygon fill="black" stroke="black" points="236.3,-129.5 246.3,-126 236.3,-122.5 236.3,-129.5"/>
</g>
<!-- 1792112959200&#45;&gt;1792112449376 -->
<g id="edge11" class="edge">
<title>1792112959200&#45;&gt;1792112449376</title>
<path fill="none" stroke="black" d="M347.13,-126C386.99,-126 444.48,-126 492.76,-126"/>
<polygon fill="black" stroke="black" points="492.66,-129.5 502.66,-126 492.66,-122.5 492.66,-129.5"/>
</g>
<!-- 1792113289856&#45;&gt;1792111959104 -->
<g id="edge12" class="edge">
<title>1792113289856&#45;&gt;1792111959104</title>
<path fill="none" stroke="black" d="M415.15,-72C423.08,-72 431.13,-72 439.18,-72"/>
<polygon fill="black" stroke="black" points="439.04,-75.5 449.04,-72 439.04,-68.5 439.04,-75.5"/>
</g>
<!-- 1792110678464&#45;&gt;1792113289760 -->
<g id="edge16" class="edge">
<title>1792110678464&#45;&gt;1792113289760</title>
<path fill="none" stroke="black" d="M905.32,-103.84C916.31,-105.23 927.89,-106.69 939.51,-108.16"/>
<polygon fill="black" stroke="black" points="938.79,-111.59 949.15,-109.37 939.67,-104.65 938.79,-111.59"/>
</g>
<!-- 1792110678464&#45;&gt;1792111187952 -->
<g id="edge1" class="edge">
<title>1792110678464&#45;&gt;1792111187952</title>
<path fill="none" stroke="black" d="M905.32,-86.16C916.4,-84.76 928.09,-83.29 939.81,-81.81"/>
<polygon fill="black" stroke="black" points="940.05,-85.3 949.54,-80.58 939.18,-78.36 940.05,-85.3"/>
</g>
<!-- 1792111190112 -->
<g id="node14" class="node">
<title>1792111190112</title>
<ellipse fill="white" stroke="black" cx="27" cy="-99" rx="27" ry="18"/>
<text xml:space="preserve" text-anchor="middle" x="27" y="-94.72" font-family="Times New Roman,serif" font-size="12.00">start</text>
</g>
<!-- 1792111190112&#45;&gt;1792113290240 -->
<g id="edge10" class="edge">
<title>1792111190112&#45;&gt;1792113290240</title>
<path fill="none" stroke="black" d="M52.05,-91.62C60.3,-89.09 69.73,-86.2 78.78,-83.42"/>
<polygon fill="black" stroke="black" points="79.53,-86.85 88.06,-80.57 77.47,-80.16 79.53,-86.85"/>
</g>
<!-- 1792111190112&#45;&gt;1792113289616 -->
<g id="edge19" class="edge">
<title>1792111190112&#45;&gt;1792113289616</title>
<path fill="none" stroke="black" d="M43.73,-113.48C55.97,-124.74 73.25,-140.65 87.85,-154.09"/>
<polygon fill="black" stroke="black" points="85.24,-156.44 94.97,-160.64 89.98,-151.29 85.24,-156.44"/>
</g>
<!-- 1792111190112&#45;&gt;1792113284816 -->
<g id="edge2" class="edge">
<title>1792111190112&#45;&gt;1792113284816</title>
<path fill="none" stroke="black" d="M43.73,-84.52C55.97,-73.26 73.25,-57.35 87.85,-43.91"/>
<polygon fill="black" stroke="black" points="89.98,-46.71 94.97,-37.36 85.24,-41.56 89.98,-46.71"/>
</g>
<!-- 1792111190112&#45;&gt;1792113290480 -->
<g id="edge7" class="edge">
<title>1792111190112&#45;&gt;1792113290480</title>
<path fill="none" stroke="black" d="M52.05,-106.38C60.3,-108.91 69.73,-111.8 78.78,-114.58"/>
<polygon fill="black" stroke="black" points="77.47,-117.84 88.06,-117.43 79.53,-111.15 77.47,-117.84"/>
</g>
<!-- 1792113287504&#45;&gt;1792111187952 -->
<g id="edge14" class="edge">
<title>1792113287504&#45;&gt;1792111187952</title>
<path fill="none" stroke="black" d="M648.31,-24.8C723.11,-32.86 849.08,-46.43 939.87,-56.22"/>
<polygon fill="black" stroke="black" points="939.22,-59.67 949.53,-57.26 939.97,-52.71 939.22,-59.67"/>
</g>
<!-- 1792113289904&#45;&gt;1792113290816 -->
<g id="edge20" class="edge">
<title>1792113289904&#45;&gt;1792113290816</title>
<path fill="none" stroke="black" d="M1339.51,-95C1347.85,-95 1356.05,-95 1363.61,-95"/>
<polygon fill="black" stroke="black" points="1363.39,-98.5 1373.39,-95 1363.39,-91.5 1363.39,-98.5"/>
</g>
<!-- 1792113287888&#45;&gt;1792113289760 -->
<g id="edge18" class="edge">
<title>1792113287888&#45;&gt;1792113289760</title>
<path fill="none" stroke="black" d="M892.05,-149.92C906.87,-147.28 923.36,-144.35 939.92,-141.41"/>
<polygon fill="black" stroke="black" points="940.07,-144.94 949.3,-139.74 938.84,-138.05 940.07,-144.94"/>
</g>
</g>
</svg>
