<?xml version="1.0" encoding="UTF-8" standalone="no"?>
<!DOCTYPE svg PUBLIC "-//W3C//DTD SVG 1.1//EN"
 "http://www.w3.org/Graphics/SVG/1.1/DTD/svg11.dtd">
<!-- Generated by graphviz version 14.1.2 (20260124.0452)
 -->
<!-- Title: Scheduled_Task_Job_At Pages: 1 -->
<svg width="1527pt" height="206pt"
 viewBox="0.00 0.00 1527.00 206.00" xmlns="http://www.w3.org/2000/svg" xmlns:xlink="http://www.w3.org/1999/xlink">
<g id="graph0" class="graph" transform="scale(1 1) rotate(0) translate(4 202)">
<title>Scheduled_Task_Job_At</title>
<polygon fill="white" stroke="none" points="-4,4 -4,-202 1523.23,-202 1523.23,4 -4,4"/>
<!-- 2726271020320 -->
<g id="node1" class="node">
<title>2726271020320</title>
<polygon fill="white" stroke="black" points="717.51,-144 451.01,-144 451.01,-108 717.51,-108 717.51,-144"/>
<text xml:space="preserve" text-anchor="middle" x="584.26" y="-121.72" font-family="Times New Roman,serif" font-size="12.00">WMI_Win32_ScheduledJob_creates_AnomalousJob</text>
</g>
<!-- 2726271920912 -->
<g id="node15" class="node">
<title>2726271920912</title>
<ellipse fill="white" stroke="black" cx="834.29" cy="-110" rx="80.77" ry="18"/>
<text xml:space="preserve" text-anchor="middle" x="834.29" y="-105.72" font-family="Times New Roman,serif" font-size="12.00">AnomalousJob_created</text>
</g>
<!-- 2726271020320&#45;&gt;2726271920912 -->
<g id="edge8" class="edge">
<title>2726271020320&#45;&gt;2726271920912</title>
<path fill="none" stroke="black" d="M717.99,-117.44C727.04,-116.85 736.02,-116.27 744.75,-115.71"/>
<polygon fill="black" stroke="black" points="744.8,-119.22 754.56,-115.08 744.35,-112.23 744.8,-119.22"/>
</g>
<!-- 2726271018784 -->
<g id="node2" class="node">
<title>2726271018784</title>
<polygon fill="white" stroke="black" points="1148.94,-140 951.44,-140 951.44,-104 1148.94,-104 1148.94,-140"/>
<text xml:space="preserve" text-anchor="middle" x="1050.19" y="-117.72" font-family="Times New Roman,serif" font-size="12.00">svchost_exe_executes_AnomalousJob</text>
</g>
<!-- 2726272181568 -->
<g id="node13" class="node">
<title>2726272181568</title>
<ellipse fill="white" stroke="black" cx="1262.27" cy="-95" rx="76.96" ry="18"/>
<text xml:space="preserve" text-anchor="middle" x="1262.27" y="-90.72" font-family="Times New Roman,serif" font-size="12.00">AnomalousJob_active</text>
</g>
<!-- 2726271018784&#45;&gt;2726272181568 -->
<g id="edge3" class="edge">
<title>2726271018784&#45;&gt;2726272181568</title>
<path fill="none" stroke="black" d="M1149.15,-109.41C1160.43,-107.96 1171.81,-106.5 1182.78,-105.09"/>
<polygon fill="black" stroke="black" points="1183.07,-108.58 1192.54,-103.83 1182.17,-101.64 1183.07,-108.58"/>
</g>
<!-- 2726272185408 -->
<g id="node3" class="node">
<title>2726272185408</title>
<polygon fill="black" stroke="black" points="144,-90 90,-90 90,-54 144,-54 144,-90"/>
</g>
<!-- 2726270588672 -->
<g id="node10" class="node">
<title>2726270588672</title>
<ellipse fill="white" stroke="black" cx="297.51" cy="-72" rx="51.2" ry="18"/>
<text xml:space="preserve" text-anchor="middle" x="297.51" y="-67.72" font-family="Times New Roman,serif" font-size="12.00">at_exe_active</text>
</g>
<!-- 2726272185408&#45;&gt;2726270588672 -->
<g id="edge19" class="edge">
<title>2726272185408&#45;&gt;2726270588672</title>
<path fill="none" stroke="black" d="M144.34,-72C168.09,-72 203.94,-72 234.88,-72"/>
<polygon fill="black" stroke="black" points="234.51,-75.5 244.51,-72 234.51,-68.5 234.51,-75.5"/>
</g>
<!-- 2726271920576 -->
<g id="node4" class="node">
<title>2726271920576</title>
<polygon fill="black" stroke="black" points="144,-144 90,-144 90,-108 144,-108 144,-144"/>
</g>
<!-- 2726271020608 -->
<g id="node11" class="node">
<title>2726271020608</title>
<ellipse fill="white" stroke="black" cx="297.51" cy="-126" rx="117.51" ry="18"/>
<text xml:space="preserve" text-anchor="middle" x="297.51" y="-121.72" font-family="Times New Roman,serif" font-size="12.00">WMI_Win32_ScheduledJob_active</text>
</g>
<!-- 2726271920576&#45;&gt;2726271020608 -->
<g id="edge18" class="edge">
<title>2726271920576&#45;&gt;2726271020608</title>
<path fill="none" stroke="black" d="M144.34,-126C151.43,-126 159.6,-126 168.4,-126"/>
<polygon fill="black" stroke="black" points="168.32,-129.5 178.32,-126 168.32,-122.5 168.32,-129.5"/>
</g>
<!-- 2726271920864 -->
<g id="node5" class="node">
<title>2726271920864</title>
<polygon fill="black" stroke="black" points="144,-198 90,-198 90,-162 144,-162 144,-198"/>
</g>
<!-- 2726272184928 -->
<g id="node12" class="node">
<title>2726272184928</title>
<ellipse fill="white" stroke="black" cx="584.26" cy="-180" rx="68.37" ry="18"/>
<text xml:space="preserve" text-anchor="middle" x="584.26" y="-175.72" font-family="Times New Roman,serif" font-size="12.00">svchost_exe_active</text>
</g>
<!-- 2726271920864&#45;&gt;2726272184928 -->
<g id="edge10" class="edge">
<title>2726271920864&#45;&gt;2726272184928</title>
<path fill="none" stroke="black" d="M144.35,-180C212.6,-180 397.27,-180 504.07,-180"/>
<polygon fill="black" stroke="black" points="503.91,-183.5 513.91,-180 503.91,-176.5 503.91,-183.5"/>
</g>
<!-- 2723666790160 -->
<g id="node6" class="node">
<title>2723666790160</title>
<polygon fill="white" stroke="black" points="665.39,-90 503.14,-90 503.14,-54 665.39,-54 665.39,-90"/>
<text xml:space="preserve" text-anchor="middle" x="584.26" y="-67.72" font-family="Times New Roman,serif" font-size="12.00">at_exe_creates_AnomalousJob</text>
</g>
<!-- 2723666790160&#45;&gt;2726271920912 -->
<g id="edge14" class="edge">
<title>2723666790160&#45;&gt;2726271920912</title>
<path fill="none" stroke="black" d="M665.79,-84.34C694.63,-88.76 727.07,-93.73 755.67,-98.11"/>
<polygon fill="black" stroke="black" points="754.92,-101.53 765.34,-99.59 755.98,-94.62 754.92,-101.53"/>
</g>
<!-- 2726272184496 -->
<g id="node7" class="node">
<title>2726272184496</title>
<polygon fill="white" stroke="black" points="1149.31,-86 951.06,-86 951.06,-50 1149.31,-50 1149.31,-86"/>
<text xml:space="preserve" text-anchor="middle" x="1050.19" y="-63.73" font-family="Times New Roman,serif" font-size="12.00">taskeng_exe_executes_AnomalousJob</text>
</g>
<!-- 2726272184496&#45;&gt;2726272181568 -->
<g id="edge15" class="edge">
<title>2726272184496&#45;&gt;2726272181568</title>
<path fill="none" stroke="black" d="M1149.77,-80.67C1160.73,-82.08 1171.78,-83.5 1182.45,-84.87"/>
<polygon fill="black" stroke="black" points="1181.99,-88.34 1192.36,-86.14 1182.88,-81.4 1181.99,-88.34"/>
</g>
<!-- 2726272184784 -->
<g id="node8" class="node">
<title>2726272184784</title>
<polygon fill="black" stroke="black" points="1429.23,-113 1375.23,-113 1375.23,-77 1429.23,-77 1429.23,-113"/>
</g>
<!-- 2726270447456 -->
<g id="node14" class="node">
<title>2726270447456</title>
<ellipse fill="white" stroke="black" cx="1492.23" cy="-95" rx="27" ry="18"/>
<text xml:space="preserve" text-anchor="middle" x="1492.23" y="-90.72" font-family="Times New Roman,serif" font-size="12.00">end</text>
</g>
<!-- 2726272184784&#45;&gt;2726270447456 -->
<g id="edge7" class="edge">
<title>2726272184784&#45;&gt;2726270447456</title>
<path fill="none" stroke="black" d="M1429.63,-95C1437.11,-95 1445.41,-95 1453.43,-95"/>
<polygon fill="black" stroke="black" points="1453.33,-98.5 1463.33,-95 1453.33,-91.5 1453.33,-98.5"/>
</g>
<!-- 2726272184688 -->
<g id="node9" class="node">
<title>2726272184688</title>
<polygon fill="black" stroke="black" points="144,-36 90,-36 90,0 144,0 144,-36"/>
</g>
<!-- 2726272183920 -->
<g id="node16" class="node">
<title>2726272183920</title>
<ellipse fill="white" stroke="black" cx="834.29" cy="-45" rx="68.85" ry="18"/>
<text xml:space="preserve" text-anchor="middle" x="834.29" y="-40.73" font-family="Times New Roman,serif" font-size="12.00">taskeng_exe_active</text>
</g>
<!-- 2726272184688&#45;&gt;2726272183920 -->
<g id="edge16" class="edge">
<title>2726272184688&#45;&gt;2726272183920</title>
<path fill="none" stroke="black" d="M144.31,-18.99C243.31,-22.73 595.96,-36.04 754.77,-42.04"/>
<polygon fill="black" stroke="black" points="754.22,-45.52 764.35,-42.4 754.49,-38.52 754.22,-45.52"/>
</g>
<!-- 2726270588672&#45;&gt;2723666790160 -->
<g id="edge2" class="edge">
<title>2726270588672&#45;&gt;2723666790160</title>
<path fill="none" stroke="black" d="M349.09,-72C388.43,-72 444.09,-72 491.27,-72"/>
<polygon fill="black" stroke="black" points="491.24,-75.5 501.24,-72 491.24,-68.5 491.24,-75.5"/>
</g>
<!-- 2726271020608&#45;&gt;2726271020320 -->
<g id="edge5" class="edge">
<title>2726271020608&#45;&gt;2726271020320</title>
<path fill="none" stroke="black" d="M415.15,-126C423.08,-126 431.13,-126 439.18,-126"/>
<polygon fill="black" stroke="black" points="439.04,-129.5 449.04,-126 439.04,-122.5 439.04,-129.5"/>
</g>
<!-- 2726272184928&#45;&gt;2726271018784 -->
<g id="edge9" class="edge">
<title>2726272184928&#45;&gt;2726271018784</title>
<path fill="none" stroke="black" d="M646.87,-172.3C721.52,-162.97 848.63,-147.07 940.01,-135.65"/>
<polygon fill="black" stroke="black" points="940.27,-139.14 949.75,-134.43 939.4,-132.2 940.27,-139.14"/>
</g>
<!-- 2726272181568&#45;&gt;2726272184784 -->
<g id="edge4" class="edge">
<title>2726272181568&#45;&gt;2726272184784</title>
<path fill="none" stroke="black" d="M1339.51,-95C1347.85,-95 1356.05,-95 1363.61,-95"/>
<polygon fill="black" stroke="black" points="1363.39,-98.5 1373.39,-95 1363.39,-91.5 1363.39,-98.5"/>
</g>
<!-- 2726271920912&#45;&gt;2726271018784 -->
<g id="edge13" class="edge">
<title>2726271920912&#45;&gt;2726271018784</title>
<path fill="none" stroke="black" d="M913.11,-114.37C921.76,-114.85 930.69,-115.35 939.64,-115.85"/>
<polygon fill="black" stroke="black" points="939.28,-119.34 949.46,-116.41 939.67,-112.35 939.28,-119.34"/>
</g>
<!-- 2726271920912&#45;&gt;2726272184496 -->
<g id="edge6" class="edge">
<title>2726271920912&#45;&gt;2726272184496</title>
<path fill="none" stroke="black" d="M896.01,-98.08C911.11,-95.11 927.72,-91.85 944.28,-88.6"/>
<polygon fill="black" stroke="black" points="944.5,-92.12 953.64,-86.76 943.16,-85.25 944.5,-92.12"/>
</g>
<!-- 2726272183920&#45;&gt;2726272184496 -->
<g id="edge11" class="edge">
<title>2726272183920&#45;&gt;2726272184496</title>
<path fill="none" stroke="black" d="M898.59,-51.81C911.52,-53.2 925.48,-54.7 939.5,-56.21"/>
<polygon fill="black" stroke="black" points="938.91,-59.66 949.23,-57.25 939.66,-52.7 938.91,-59.66"/>
</g>
<!-- 2726271921104 -->
<g id="node17" class="node">
<title>2726271921104</title>
<ellipse fill="white" stroke="black" cx="27" cy="-99" rx="27" ry="18"/>
<text xml:space="preserve" text-anchor="middle" x="27" y="-94.72" font-family="Times New Roman,serif" font-size="12.00">start</text>
</g>
<!-- 2726271921104&#45;&gt;2726272185408 -->
<g id="edge12" class="edge">
<title>2726271921104&#45;&gt;2726272185408</title>
<path fill="none" stroke="black" d="M52.05,-91.62C60.3,-89.09 69.73,-86.2 78.78,-83.42"/>
<polygon fill="black" stroke="black" points="79.53,-86.85 88.06,-80.57 77.47,-80.16 79.53,-86.85"/>
</g>
<!-- 2726271921104&#45;&gt;2726271920576 -->
<g id="edge20" class="edge">
<title>2726271921104&#45;&gt;2726271920576</title>
<path fill="none" stroke="black" d="M52.05,-106.38C60.3,-108.91 69.73,-111.8 78.78,-114.58"/>
<polygon fill="black" stroke="black" points="77.47,-117.84 88.06,-117.43 79.53,-111.15 77.47,-117.84"/>
</g>
<!-- 2726271921104&#45;&gt;2726271920864 -->
<g id="edge17" class="edge">
<title>2726271921104&#45;&gt;2726271920864</title>
<path fill="none" stroke="black" d="M43.73,-113.48C55.97,-124.74 73.25,-140.65 87.85,-154.09"/>
<polygon fill="black" stroke="black" points="85.24,-156.44 94.97,-160.64 89.98,-151.29 85.24,-156.44"/>
</g>
<!-- 2726271921104&#45;&gt;2726272184688 -->
<g id="edge1" class="edge">
<title>2726271921104&#45;&gt;2726272184688</title>
<path fill="none" stroke="black" d="M43.73,-84.52C55.97,-73.26 73.25,-57.35 87.85,-43.91"/>
<polygon fill="black" stroke="black" points="89.98,-46.71 94.97,-37.36 85.24,-41.56 89.98,-46.71"/>
</g>
</g>
</svg>
