<?xml version="1.0" encoding="UTF-8" standalone="no"?>
<!DOCTYPE svg PUBLIC "-//W3C//DTD SVG 1.1//EN"
 "http://www.w3.org/Graphics/SVG/1.1/DTD/svg11.dtd">
<!-- Generated by graphviz version 14.1.2 (20260124.0452)
 -->
<!-- Title: OS_Credential_Dumping_LSASS_Memory Pages: 1 -->
<svg width="2039pt" height="98pt"
 viewBox="0.00 0.00 2039.00 98.00" xmlns="http://www.w3.org/2000/svg" xmlns:xlink="http://www.w3.org/1999/xlink">
<g id="graph0" class="graph" transform="scale(1 1) rotate(0) translate(4 94)">
<title>OS_Credential_Dumping_LSASS_Memory</title>
<polygon fill="white" stroke="none" points="-4,4 -4,-94 2035.29,-94 2035.29,4 -4,4"/>
<!-- 2226811312448 -->
<g id="node1" class="node">
<title>2226811312448</title>
<polygon fill="white" stroke="black" points="634.34,-63 423.34,-63 423.34,-27 634.34,-27 634.34,-63"/>
<text xml:space="preserve" text-anchor="middle" x="528.84" y="-40.73" font-family="Times New Roman,serif" font-size="12.00">abnormal_process_requests_lsass_handle</text>
</g>
<!-- 2226811313072 -->
<g id="node13" class="node">
<title>2226811313072</title>
<ellipse fill="white" stroke="black" cx="817.42" cy="-45" rx="147.08" ry="18"/>
<text xml:space="preserve" text-anchor="middle" x="817.42" y="-40.73" font-family="Times New Roman,serif" font-size="12.00">lsass_handle_acquired_by_abnormal_process</text>
</g>
<!-- 2226811312448&#45;&gt;2226811313072 -->
<g id="edge3" class="edge">
<title>2226811312448&#45;&gt;2226811313072</title>
<path fill="none" stroke="black" d="M634.52,-45C642.55,-45 650.75,-45 659.01,-45"/>
<polygon fill="black" stroke="black" points="658.79,-48.5 668.79,-45 658.79,-41.5 658.79,-48.5"/>
</g>
<!-- 2226811313024 -->
<g id="node2" class="node">
<title>2226811313024</title>
<polygon fill="black" stroke="black" points="144,-90 90,-90 90,-54 144,-54 144,-90"/>
</g>
<!-- 2226811312736 -->
<g id="node8" class="node">
<title>2226811312736</title>
<ellipse fill="white" stroke="black" cx="283.67" cy="-72" rx="103.67" ry="18"/>
<text xml:space="preserve" text-anchor="middle" x="283.67" y="-67.72" font-family="Times New Roman,serif" font-size="12.00">abnormal_process_is_activated</text>
</g>
<!-- 2226811313024&#45;&gt;2226811312736 -->
<g id="edge15" class="edge">
<title>2226811313024&#45;&gt;2226811312736</title>
<path fill="none" stroke="black" d="M144.46,-72C151.55,-72 159.7,-72 168.41,-72"/>
<polygon fill="black" stroke="black" points="168.19,-75.5 178.19,-72 168.19,-68.5 168.19,-75.5"/>
</g>
<!-- 2226811312976 -->
<g id="node3" class="node">
<title>2226811312976</title>
<polygon fill="white" stroke="black" points="1653.74,-88 1436.74,-88 1436.74,-52 1653.74,-52 1653.74,-88"/>
<text xml:space="preserve" text-anchor="middle" x="1545.24" y="-65.72" font-family="Times New Roman,serif" font-size="12.00">abnormal_process_modifies_registry_keys</text>
</g>
<!-- 2226811312544 -->
<g id="node9" class="node">
<title>2226811312544</title>
<ellipse fill="white" stroke="black" cx="1770.51" cy="-72" rx="80.77" ry="18"/>
<text xml:space="preserve" text-anchor="middle" x="1770.51" y="-67.72" font-family="Times New Roman,serif" font-size="12.00">registry_keys_modified</text>
</g>
<!-- 2226811312976&#45;&gt;2226811312544 -->
<g id="edge13" class="edge">
<title>2226811312976&#45;&gt;2226811312544</title>
<path fill="none" stroke="black" d="M1653.95,-70.96C1661.97,-71.04 1670.01,-71.11 1677.92,-71.18"/>
<polygon fill="black" stroke="black" points="1677.84,-74.68 1687.87,-71.27 1677.9,-67.68 1677.84,-74.68"/>
</g>
<!-- 2226811313264 -->
<g id="node4" class="node">
<title>2226811313264</title>
<polygon fill="white" stroke="black" points="1207,-63 1000.5,-63 1000.5,-27 1207,-27 1207,-63"/>
<text xml:space="preserve" text-anchor="middle" x="1103.75" y="-40.73" font-family="Times New Roman,serif" font-size="12.00">abnormal_process_requests_lsass_dump</text>
</g>
<!-- 2226811313168 -->
<g id="node11" class="node">
<title>2226811313168</title>
<ellipse fill="white" stroke="black" cx="1321.87" cy="-45" rx="78.87" ry="18"/>
<text xml:space="preserve" text-anchor="middle" x="1321.87" y="-40.73" font-family="Times New Roman,serif" font-size="12.00">lsass_dump_is_created</text>
</g>
<!-- 2226811313264&#45;&gt;2226811313168 -->
<g id="edge2" class="edge">
<title>2226811313264&#45;&gt;2226811313168</title>
<path fill="none" stroke="black" d="M1207.43,-45C1215.41,-45 1223.42,-45 1231.3,-45"/>
<polygon fill="black" stroke="black" points="1231.22,-48.5 1241.22,-45 1231.22,-41.5 1231.22,-48.5"/>
</g>
<!-- 2226811313360 -->
<g id="node5" class="node">
<title>2226811313360</title>
<polygon fill="black" stroke="black" points="144,-36 90,-36 90,0 144,0 144,-36"/>
</g>
<!-- 2226875333424 -->
<g id="node12" class="node">
<title>2226875333424</title>
<ellipse fill="white" stroke="black" cx="283.67" cy="-18" rx="77.44" ry="18"/>
<text xml:space="preserve" text-anchor="middle" x="283.67" y="-13.72" font-family="Times New Roman,serif" font-size="12.00">lsass_exe_is_activated</text>
</g>
<!-- 2226811313360&#45;&gt;2226875333424 -->
<g id="edge5" class="edge">
<title>2226811313360&#45;&gt;2226875333424</title>
<path fill="none" stroke="black" d="M144.46,-18C158.31,-18 176.16,-18 194.4,-18"/>
<polygon fill="black" stroke="black" points="194.26,-21.5 204.26,-18 194.26,-14.5 194.26,-21.5"/>
</g>
<!-- 2226811313936 -->
<g id="node6" class="node">
<title>2226811313936</title>
<polygon fill="black" stroke="black" points="1797.51,-36 1743.51,-36 1743.51,0 1797.51,0 1797.51,-36"/>
</g>
<!-- 2226811312592 -->
<g id="node14" class="node">
<title>2226811312592</title>
<ellipse fill="white" stroke="black" cx="2004.29" cy="-45" rx="27" ry="18"/>
<text xml:space="preserve" text-anchor="middle" x="2004.29" y="-40.73" font-family="Times New Roman,serif" font-size="12.00">end</text>
</g>
<!-- 2226811313936&#45;&gt;2226811312592 -->
<g id="edge8" class="edge">
<title>2226811313936&#45;&gt;2226811312592</title>
<path fill="none" stroke="black" d="M1797.65,-21.04C1838.8,-25.84 1918.83,-35.16 1966.01,-40.66"/>
<polygon fill="black" stroke="black" points="1965.41,-44.11 1975.74,-41.79 1966.22,-37.16 1965.41,-44.11"/>
</g>
<!-- 2226811314128 -->
<g id="node7" class="node">
<title>2226811314128</title>
<polygon fill="black" stroke="black" points="1941.29,-88 1887.29,-88 1887.29,-52 1941.29,-52 1941.29,-88"/>
</g>
<!-- 2226811314128&#45;&gt;2226811312592 -->
<g id="edge10" class="edge">
<title>2226811314128&#45;&gt;2226811312592</title>
<path fill="none" stroke="black" d="M1941.69,-62.5C1950.02,-60.13 1959.36,-57.48 1968.19,-54.97"/>
<polygon fill="black" stroke="black" points="1968.89,-58.41 1977.55,-52.31 1966.98,-51.68 1968.89,-58.41"/>
</g>
<!-- 2226811312736&#45;&gt;2226811312448 -->
<g id="edge1" class="edge">
<title>2226811312736&#45;&gt;2226811312448</title>
<path fill="none" stroke="black" d="M372.12,-62.29C384.99,-60.86 398.42,-59.37 411.76,-57.89"/>
<polygon fill="black" stroke="black" points="411.87,-61.4 421.42,-56.82 411.1,-54.44 411.87,-61.4"/>
</g>
<!-- 2226811312544&#45;&gt;2226811314128 -->
<g id="edge9" class="edge">
<title>2226811312544&#45;&gt;2226811314128</title>
<path fill="none" stroke="black" d="M1851.52,-70.87C1859.92,-70.75 1868.16,-70.64 1875.74,-70.53"/>
<polygon fill="black" stroke="black" points="1875.57,-74.03 1885.52,-70.39 1875.47,-67.03 1875.57,-74.03"/>
</g>
<!-- 2226811312352 -->
<g id="node10" class="node">
<title>2226811312352</title>
<ellipse fill="white" stroke="black" cx="27" cy="-45" rx="27" ry="18"/>
<text xml:space="preserve" text-anchor="middle" x="27" y="-40.73" font-family="Times New Roman,serif" font-size="12.00">start</text>
</g>
<!-- 2226811312352&#45;&gt;2226811313024 -->
<g id="edge6" class="edge">
<title>2226811312352&#45;&gt;2226811313024</title>
<path fill="none" stroke="black" d="M52.05,-52.38C60.3,-54.91 69.73,-57.8 78.78,-60.58"/>
<polygon fill="black" stroke="black" points="77.47,-63.84 88.06,-63.43 79.53,-57.15 77.47,-63.84"/>
</g>
<!-- 2226811312352&#45;&gt;2226811313360 -->
<g id="edge14" class="edge">
<title>2226811312352&#45;&gt;2226811313360</title>
<path fill="none" stroke="black" d="M52.05,-37.62C60.3,-35.09 69.73,-32.2 78.78,-29.42"/>
<polygon fill="black" stroke="black" points="79.53,-32.85 88.06,-26.57 77.47,-26.16 79.53,-32.85"/>
</g>
<!-- 2226811313168&#45;&gt;2226811312976 -->
<g id="edge4" class="edge">
<title>2226811313168&#45;&gt;2226811312976</title>
<path fill="none" stroke="black" d="M1393.22,-52.94C1403.46,-54.1 1414.23,-55.32 1425.12,-56.55"/>
<polygon fill="black" stroke="black" points="1424.65,-60.02 1434.98,-57.66 1425.44,-53.06 1424.65,-60.02"/>
</g>
<!-- 2226811313168&#45;&gt;2226811313936 -->
<g id="edge7" class="edge">
<title>2226811313168&#45;&gt;2226811313936</title>
<path fill="none" stroke="black" d="M1398.64,-40.42C1495.3,-34.58 1658.72,-24.7 1732,-20.27"/>
<polygon fill="black" stroke="black" points="1732.09,-23.77 1741.86,-19.67 1731.67,-16.78 1732.09,-23.77"/>
</g>
<!-- 2226875333424&#45;&gt;2226811312448 -->
<g id="edge11" class="edge">
<title>2226875333424&#45;&gt;2226811312448</title>
<path fill="none" stroke="black" d="M354.36,-25.74C372.39,-27.74 392.3,-29.95 412.01,-32.14"/>
<polygon fill="black" stroke="black" points="411.41,-35.59 421.74,-33.22 412.19,-28.64 411.41,-35.59"/>
</g>
<!-- 2226811313072&#45;&gt;2226811313264 -->
<g id="edge12" class="edge">
<title>2226811313072&#45;&gt;2226811313264</title>
<path fill="none" stroke="black" d="M964.75,-45C972.8,-45 980.83,-45 988.73,-45"/>
<polygon fill="black" stroke="black" points="988.7,-48.5 998.7,-45 988.7,-41.5 988.7,-48.5"/>
</g>
</g>
</svg>
