<?xml version="1.0" encoding="UTF-8" standalone="no"?>
<!DOCTYPE svg PUBLIC "-//W3C//DTD SVG 1.1//EN"
 "http://www.w3.org/Graphics/SVG/1.1/DTD/svg11.dtd">
<!-- Generated by graphviz version 14.1.2 (20260124.0452)
 -->
<!-- Title: OS_Credential_Dumping_LSASS_Memory Pages: 1 -->
<svg width="2039pt" height="98pt"
 viewBox="0.00 0.00 2039.00 98.00" xmlns="http://www.w3.org/2000/svg" xmlns:xlink="http://www.w3.org/1999/xlink">
<g id="graph0" class="graph" transform="scale(1 1) rotate(0) translate(4 94)">
<title>OS_Credential_Dumping_LSASS_Memory</title>
<polygon fill="white" stroke="none" points="-4,4 -4,-94 2035.29,-94 2035.29,4 -4,4"/>
<!-- 2744354856384 -->
<g id="node1" class="node">
<title>2744354856384</title>
<polygon fill="white" stroke="black" points="634.34,-63 423.34,-63 423.34,-27 634.34,-27 634.34,-63"/>
<text xml:space="preserve" text-anchor="middle" x="528.84" y="-40.73" font-family="Times New Roman,serif" font-size="12.00">abnormal_process_requests_lsass_handle</text>
</g>
<!-- 2744354856720 -->
<g id="node12" class="node">
<title>2744354856720</title>
<ellipse fill="white" stroke="black" cx="817.42" cy="-45" rx="147.08" ry="18"/>
<text xml:space="preserve" text-anchor="middle" x="817.42" y="-40.73" font-family="Times New Roman,serif" font-size="12.00">lsass_handle_acquired_by_abnormal_process</text>
</g>
<!-- 2744354856384&#45;&gt;2744354856720 -->
<g id="edge11" class="edge">
<title>2744354856384&#45;&gt;2744354856720</title>
<path fill="none" stroke="black" d="M634.52,-45C642.55,-45 650.75,-45 659.01,-45"/>
<polygon fill="black" stroke="black" points="658.79,-48.5 668.79,-45 658.79,-41.5 658.79,-48.5"/>
</g>
<!-- 2744354856960 -->
<g id="node2" class="node">
<title>2744354856960</title>
<polygon fill="white" stroke="black" points="1207,-63 1000.5,-63 1000.5,-27 1207,-27 1207,-63"/>
<text xml:space="preserve" text-anchor="middle" x="1103.75" y="-40.73" font-family="Times New Roman,serif" font-size="12.00">abnormal_process_requests_lsass_dump</text>
</g>
<!-- 2744354856768 -->
<g id="node8" class="node">
<title>2744354856768</title>
<ellipse fill="white" stroke="black" cx="1321.87" cy="-45" rx="78.87" ry="18"/>
<text xml:space="preserve" text-anchor="middle" x="1321.87" y="-40.73" font-family="Times New Roman,serif" font-size="12.00">lsass_dump_is_created</text>
</g>
<!-- 2744354856960&#45;&gt;2744354856768 -->
<g id="edge1" class="edge">
<title>2744354856960&#45;&gt;2744354856768</title>
<path fill="none" stroke="black" d="M1207.43,-45C1215.41,-45 1223.42,-45 1231.3,-45"/>
<polygon fill="black" stroke="black" points="1231.22,-48.5 1241.22,-45 1231.22,-41.5 1231.22,-48.5"/>
</g>
<!-- 2744354857152 -->
<g id="node3" class="node">
<title>2744354857152</title>
<polygon fill="black" stroke="black" points="144,-90 90,-90 90,-54 144,-54 144,-90"/>
</g>
<!-- 2744354856240 -->
<g id="node11" class="node">
<title>2744354856240</title>
<ellipse fill="white" stroke="black" cx="283.67" cy="-72" rx="103.67" ry="18"/>
<text xml:space="preserve" text-anchor="middle" x="283.67" y="-67.72" font-family="Times New Roman,serif" font-size="12.00">abnormal_process_is_activated</text>
</g>
<!-- 2744354857152&#45;&gt;2744354856240 -->
<g id="edge13" class="edge">
<title>2744354857152&#45;&gt;2744354856240</title>
<path fill="none" stroke="black" d="M144.46,-72C151.55,-72 159.7,-72 168.41,-72"/>
<polygon fill="black" stroke="black" points="168.19,-75.5 178.19,-72 168.19,-68.5 168.19,-75.5"/>
</g>
<!-- 2744354857632 -->
<g id="node4" class="node">
<title>2744354857632</title>
<polygon fill="black" stroke="black" points="1797.51,-90 1743.51,-90 1743.51,-54 1797.51,-54 1797.51,-90"/>
</g>
<!-- 2744354856288 -->
<g id="node10" class="node">
<title>2744354856288</title>
<ellipse fill="white" stroke="black" cx="2004.29" cy="-45" rx="27" ry="18"/>
<text xml:space="preserve" text-anchor="middle" x="2004.29" y="-40.73" font-family="Times New Roman,serif" font-size="12.00">end</text>
</g>
<!-- 2744354857632&#45;&gt;2744354856288 -->
<g id="edge8" class="edge">
<title>2744354857632&#45;&gt;2744354856288</title>
<path fill="none" stroke="black" d="M1797.65,-68.96C1838.8,-64.16 1918.83,-54.84 1966.01,-49.34"/>
<polygon fill="black" stroke="black" points="1966.22,-52.84 1975.74,-48.21 1965.41,-45.89 1966.22,-52.84"/>
</g>
<!-- 2744354857728 -->
<g id="node5" class="node">
<title>2744354857728</title>
<polygon fill="black" stroke="black" points="1941.29,-40 1887.29,-40 1887.29,-4 1941.29,-4 1941.29,-40"/>
</g>
<!-- 2744354857728&#45;&gt;2744354856288 -->
<g id="edge15" class="edge">
<title>2744354857728&#45;&gt;2744354856288</title>
<path fill="none" stroke="black" d="M1941.69,-28.9C1949.86,-31.04 1958.99,-33.42 1967.68,-35.69"/>
<polygon fill="black" stroke="black" points="1966.69,-39.05 1977.25,-38.19 1968.46,-32.28 1966.69,-39.05"/>
</g>
<!-- 2744354856624 -->
<g id="node6" class="node">
<title>2744354856624</title>
<polygon fill="white" stroke="black" points="1653.74,-40 1436.74,-40 1436.74,-4 1653.74,-4 1653.74,-40"/>
<text xml:space="preserve" text-anchor="middle" x="1545.24" y="-17.73" font-family="Times New Roman,serif" font-size="12.00">abnormal_process_modifies_registry_keys</text>
</g>
<!-- 2744354856528 -->
<g id="node13" class="node">
<title>2744354856528</title>
<ellipse fill="white" stroke="black" cx="1770.51" cy="-18" rx="80.77" ry="18"/>
<text xml:space="preserve" text-anchor="middle" x="1770.51" y="-13.72" font-family="Times New Roman,serif" font-size="12.00">registry_keys_modified</text>
</g>
<!-- 2744354856624&#45;&gt;2744354856528 -->
<g id="edge5" class="edge">
<title>2744354856624&#45;&gt;2744354856528</title>
<path fill="none" stroke="black" d="M1653.95,-20.07C1662.14,-19.92 1670.35,-19.78 1678.42,-19.63"/>
<polygon fill="black" stroke="black" points="1678.26,-23.14 1688.19,-19.46 1678.13,-16.14 1678.26,-23.14"/>
</g>
<!-- 2744354856912 -->
<g id="node7" class="node">
<title>2744354856912</title>
<polygon fill="black" stroke="black" points="144,-36 90,-36 90,0 144,0 144,-36"/>
</g>
<!-- 2744354856096 -->
<g id="node9" class="node">
<title>2744354856096</title>
<ellipse fill="white" stroke="black" cx="283.67" cy="-18" rx="77.44" ry="18"/>
<text xml:space="preserve" text-anchor="middle" x="283.67" y="-13.72" font-family="Times New Roman,serif" font-size="12.00">lsass_exe_is_activated</text>
</g>
<!-- 2744354856912&#45;&gt;2744354856096 -->
<g id="edge6" class="edge">
<title>2744354856912&#45;&gt;2744354856096</title>
<path fill="none" stroke="black" d="M144.46,-18C158.31,-18 176.16,-18 194.4,-18"/>
<polygon fill="black" stroke="black" points="194.26,-21.5 204.26,-18 194.26,-14.5 194.26,-21.5"/>
</g>
<!-- 2744354856768&#45;&gt;2744354857632 -->
<g id="edge14" class="edge">
<title>2744354856768&#45;&gt;2744354857632</title>
<path fill="none" stroke="black" d="M1398.64,-49.58C1495.3,-55.42 1658.72,-65.3 1732,-69.73"/>
<polygon fill="black" stroke="black" points="1731.67,-73.22 1741.86,-70.33 1732.09,-66.23 1731.67,-73.22"/>
</g>
<!-- 2744354856768&#45;&gt;2744354856624 -->
<g id="edge4" class="edge">
<title>2744354856768&#45;&gt;2744354856624</title>
<path fill="none" stroke="black" d="M1394.44,-37.56C1404.27,-36.54 1414.58,-35.47 1424.98,-34.39"/>
<polygon fill="black" stroke="black" points="1425.21,-37.89 1434.79,-33.37 1424.49,-30.92 1425.21,-37.89"/>
</g>
<!-- 2744354856096&#45;&gt;2744354856384 -->
<g id="edge2" class="edge">
<title>2744354856096&#45;&gt;2744354856384</title>
<path fill="none" stroke="black" d="M354.36,-25.74C372.39,-27.74 392.3,-29.95 412.01,-32.14"/>
<polygon fill="black" stroke="black" points="411.41,-35.59 421.74,-33.22 412.19,-28.64 411.41,-35.59"/>
</g>
<!-- 2744354856240&#45;&gt;2744354856384 -->
<g id="edge10" class="edge">
<title>2744354856240&#45;&gt;2744354856384</title>
<path fill="none" stroke="black" d="M372.12,-62.29C384.99,-60.86 398.42,-59.37 411.76,-57.89"/>
<polygon fill="black" stroke="black" points="411.87,-61.4 421.42,-56.82 411.1,-54.44 411.87,-61.4"/>
</g>
<!-- 2744354856720&#45;&gt;2744354856960 -->
<g id="edge3" class="edge">
<title>2744354856720&#45;&gt;2744354856960</title>
<path fill="none" stroke="black" d="M964.75,-45C972.8,-45 980.83,-45 988.73,-45"/>
<polygon fill="black" stroke="black" points="988.7,-48.5 998.7,-45 988.7,-41.5 988.7,-48.5"/>
</g>
<!-- 2744354856528&#45;&gt;2744354857728 -->
<g id="edge9" class="edge">
<title>2744354856528&#45;&gt;2744354857728</title>
<path fill="none" stroke="black" d="M1851.1,-20.25C1859.55,-20.48 1867.84,-20.72 1875.46,-20.93"/>
<polygon fill="black" stroke="black" points="1875.22,-24.43 1885.32,-21.21 1875.42,-17.43 1875.22,-24.43"/>
</g>
<!-- 2744354856144 -->
<g id="node14" class="node">
<title>2744354856144</title>
<ellipse fill="white" stroke="black" cx="27" cy="-45" rx="27" ry="18"/>
<text xml:space="preserve" text-anchor="middle" x="27" y="-40.73" font-family="Times New Roman,serif" font-size="12.00">start</text>
</g>
<!-- 2744354856144&#45;&gt;2744354857152 -->
<g id="edge7" class="edge">
<title>2744354856144&#45;&gt;2744354857152</title>
<path fill="none" stroke="black" d="M52.05,-52.38C60.3,-54.91 69.73,-57.8 78.78,-60.58"/>
<polygon fill="black" stroke="black" points="77.47,-63.84 88.06,-63.43 79.53,-57.15 77.47,-63.84"/>
</g>
<!-- 2744354856144&#45;&gt;2744354856912 -->
<g id="edge12" class="edge">
<title>2744354856144&#45;&gt;2744354856912</title>
<path fill="none" stroke="black" d="M52.05,-37.62C60.3,-35.09 69.73,-32.2 78.78,-29.42"/>
<polygon fill="black" stroke="black" points="79.53,-32.85 88.06,-26.57 77.47,-26.16 79.53,-32.85"/>
</g>
</g>
</svg>
